<svg width="512" height="512" viewBox="0 0 100 100" xmlns="http://www.w3.org/2000/svg" style="background-color:#f8fafc;">
  <!--
    SaleSync Favicon
    - Shopping Cart: Represents sales and products.
    - Price Tag: Represents commerce and transactions.
    - Sync Arrows: Represents synchronization and real-time updates.
  -->
  <defs>
    <style>
      .icon-fill { fill: #4f46e5; } /* A nice indigo color, consistent with Tailwind's default */
      .icon-stroke { stroke: #4f46e5; stroke-width: 6; stroke-linecap: round; stroke-linejoin: round; }
    </style>
  </defs>

  <!-- Main Element: Shopping Cart -->
  <g transform="translate(10, 20) scale(0.85)">
    <!-- Cart Body -->
    <path class="icon-fill" d="M12,80 A10,10 0 0,0 22,90 H88 A10,10 0 0,0 98,80 V40 H12 Z" opacity="0.15" />
    <path class="icon-stroke" fill="none" d="M5,10 H20 L30,60 H85 L95,25 H25" />
    
    <!-- Cart Wheels -->
    <circle class="icon-fill" cx="35" cy="75" r="8" />
    <circle class="icon-fill" cx="80" cy="75" r="8" />

    <!-- Price Tag inside the cart -->
    <g transform="translate(40, 25) scale(0.4)">
        <path class="icon-fill" d="M90,45 L50,5 A10,10 0 0,0 40,0 H10 A10,10 0 0,0 0,10 V40 A10,10 0 0,0 10,50 H40 A10,10 0 0,0 50,45 Z" />
        <circle fill="#f8fafc" cx="25" cy="25" r="7" />
    </g>
  </g>
  
  <!-- Overlay Element: Sync Arrows -->
  <g transform="translate(50, 50)">
    <g transform="scale(0.55)">
      <path class="icon-stroke" fill="none" d="M70,0 A40,40 0 1,1 42,-28" />
      <path class="icon-fill" d="M70,15 V-5 L85,5 Z" />
      
      <path class="icon-stroke" fill="none" d="M-70,0 A40,40 0 1,1 -42,28" />
      <path class="icon-fill" d="M-70,-15 V5 L-85,-5 Z" />
    </g>
  </g>
</svg>